<svg xmlns="http://www.w3.org/2000/svg" version="1.1" xmlns:xlink="http://www.w3.org/1999/xlink" viewBox="0 0 200 200" width="200" height="200"><metadata><rdf:RDF xmlns:rdf="http://www.w3.org/1999/02/22-rdf-syntax-ns#" xmlns:dc="http://purl.org/dc/elements/1.1/"><rdf:Description><dc:creator>RealFaviconGenerator</dc:creator><dc:source>https://realfavicongenerator.net</dc:source></rdf:Description></rdf:RDF></metadata><rect width="200" height="200" fill="url('#gradient')"></rect><defs><linearGradient id="gradient" gradientTransform="rotate(195 0.5 0.5)"><stop offset="0%" stop-color="#5f645b"></stop><stop offset="100%" stop-color="#4e3721"></stop></linearGradient></defs><g><g fill="#d2f0f3" transform="matrix(6.96036866359447,0,0,6.96036866359447,31.892634444082944,148.79390444601736)" stroke="#a7b7b5" stroke-width="0.75"><path d="M4.73-14.22L4.73 0L1.31 0L1.31-14.22L4.73-14.22ZM14.83-14.22L18.26-14.22L18.26-4.91Q18.26-3.33 17.59-2.17Q16.91-1.02 15.65-0.41Q14.39 0.20 12.68 0.20L12.68 0.20Q10.08 0.20 8.58-1.15Q7.09-2.50 7.06-4.84L7.06-4.84L7.06-14.22L10.51-14.22L10.51-4.78Q10.57-2.44 12.68-2.44L12.68-2.44Q13.74-2.44 14.29-3.03Q14.83-3.61 14.83-4.93L14.83-4.93L14.83-14.22Z"></path></g></g></svg>
